<?xml version="1.0" encoding="UTF-8" standalone="no"?>
<!-- Generator: Adobe Illustrator 22.0.0, SVG Export Plug-In . SVG Version: 6.00 Build 0)  -->

<svg
   xmlns:dc="http://purl.org/dc/elements/1.1/"
   xmlns:cc="http://creativecommons.org/ns#"
   xmlns:rdf="http://www.w3.org/1999/02/22-rdf-syntax-ns#"
   xmlns:svg="http://www.w3.org/2000/svg"
   xmlns="http://www.w3.org/2000/svg"
   xmlns:sodipodi="http://sodipodi.sourceforge.net/DTD/sodipodi-0.dtd"
   xmlns:inkscape="http://www.inkscape.org/namespaces/inkscape"
   version="1.1"
   id="Слой_1"
   x="0px"
   y="0px"
   viewBox="0 0 306.89999 306.79998"
   xml:space="preserve"
   sodipodi:docname="rule.svg"
   width="306.89999"
   height="306.79999"
   inkscape:version="0.92.1 r15371"><metadata
     id="metadata104"><rdf:RDF><cc:Work
         rdf:about=""><dc:format>image/svg+xml</dc:format><dc:type
           rdf:resource="http://purl.org/dc/dcmitype/StillImage" /></cc:Work></rdf:RDF></metadata><defs
     id="defs102" /><sodipodi:namedview
     pagecolor="#ffffff"
     bordercolor="#666666"
     borderopacity="1"
     objecttolerance="10"
     gridtolerance="10"
     guidetolerance="10"
     inkscape:pageopacity="0"
     inkscape:pageshadow="2"
     inkscape:window-width="1920"
     inkscape:window-height="1003"
     id="namedview100"
     showgrid="false"
     inkscape:zoom="0.236"
     inkscape:cx="76.544067"
     inkscape:cy="259.23391"
     inkscape:window-x="-9"
     inkscape:window-y="-9"
     inkscape:window-maximized="1"
     inkscape:current-layer="Слой_1" /><style
     type="text/css"
     id="style87">
	.st0{fill:#626262;}
	.st1{fill:#C7CFE3;}
</style><path
     class="st0"
     d="m 308.27627,-49.069496 c -2.8,1.5 -5.5,1 -8.3,0 2.8,0 5.5,0 8.3,0 z"
     id="path89"
     inkscape:connector-curvature="0"
     style="fill:#626262" /><path
     class="st0"
     d="m 104.27627,130.9305 c 1.5,2.8 1,5.5 0,8.3 0,-2.8 0,-5.6 0,-8.3 z"
     id="path91"
     inkscape:connector-curvature="0"
     style="fill:#626262" /><path
     class="st0"
     d="m 104.27627,146.6305 c 1,2.8 1.5,5.5 0,8.3 0,-2.8 0,-5.5 0,-8.3 z"
     id="path93"
     inkscape:connector-curvature="0"
     style="fill:#626262" /><path
     class="st0"
     d="m 299.97627,334.9305 c 2.5,-1 5,-1.3 7.5,0 -2.5,0 -5,0 -7.5,0 z"
     id="path95"
     inkscape:connector-curvature="0"
     style="fill:#626262" /><path
     class="st1"
     d="M 306.4,139.2 C 306,134.1 306,129 305.1,124 c -3,-16.4 -8.9,-31.699998 -16.9,-46.199998 -8.6,-15.5 -19.9,-28.9 -33.1,-40.700002 C 243.6,26.8 230.7,18.8 216.7,12.4 204.6,6.9 192.1,2.9 179,1.1 174.3,0.5 169.5,0.6 164.8,0 c -0.6,0 -1.2,0 -1.8,0 -2.2,0.5 -4.4,0.5 -6.6,0 -5,0 -10,0 -15,0 -0.7,0.6 -1.5,0.2 -2.3,0.3 C 134,0.7 128.9,0.7 123.9,1.6 107.6,4.6 92.399999,10.5 78,18.4 62.4,27 48.9,38.3 37,51.600002 c -10.3,11.6 -18.4,24.6 -24.8,38.7 C 6.6999999,102.4 2.7,114.9 1,128.1 c -0.6,4.4 -0.5,8.9 -1,13.3 0,0.8 0,1.6 0,2.4 0.5,2.2 0.5,4.4 0,6.6 0,2 0,4 0,6 0.5,2.2 0.5,4.4 0,6.6 0,0.8 0,1.6 0,2.4 0.6,0.7 0.2,1.5 0.3,2.3 0.4,5.1 0.4,10.2 1.3,15.2 3,16.3 8.9,31.5 16.8,45.9 8.6,15.6 19.9,29.1 33.2,41 11.6,10.3 24.6,18.4 38.699999,24.8 C 102.4,300.1 114.9,304.1 128.1,305.8 c 4.4,0.6 8.9,0.5 13.3,1 5,0 10,0 15,0 2,-0.5 4,-0.5 6,0 0.8,0 1.6,0 2.4,0 0.9,-0.6 1.9,-0.2 2.9,-0.3 5.1,-0.4 10.2,-0.4 15.2,-1.3 16.5,-3.1 31.9,-9 46.5,-17.1 15.1,-8.4 28.1,-19.3 39.7,-32 11.1,-12.3 19.7,-26.1 26.3,-41.2 5,-11.5 8.8,-23.4 10.4,-35.8 0.6,-4.5 0.5,-9.1 1.1,-13.6 0,-7.8 0,-15.6 0,-23.4 -0.8,-0.9 -0.5,-2 -0.5,-2.9 z M 129.7,265.1 c 0,4.1 0,4.2 -3.8,3.1 -44.200001,-11.9 -73,-39.8 -86.4,-83.5 -0.4,-1.4 -0.8,-2.9 -1.1,-4.3 -0.2,-1 -0.4,-1.9 -0.7,-3.4 7.5,0 14.8,0 22.1,0 10.8,0 21.599999,0 32.299999,0 C 113.1,177 129.7,193.5 129.7,214.5 c 0,16.9 0,33.8 0,50.6 z m 23.5,-83.2 c -15.6,0 -28.3,-12.7 -28.4,-28.4 -0.1,-15.6 13.1,-28.7 28.6,-28.5 15.7,0.2 28.4,13 28.3,28.5 -0.2,15.7 -12.9,28.4 -28.5,28.4 z m 104,27.5 c -17.1,30.7 -42.8,50.4 -76.9,59 -3.5,0.9 -3.5,0.8 -3.5,-2.7 0,-17 0,-33.9 0,-50.9 0,-20.5 17.2,-37.8 37.7,-37.8 17.1,0 34.1,0 51.2,0 1,0 2,0 3.2,0 -2.3,11.6 -6.2,22.3 -11.7,32.4 z m 6.6,-74.4 c -23.2,-1.2 -45.2,-7 -66.1,-17.3 -8.7,-4.2 -17.6,-8 -27.2,-9.8 -18,-3.4 -35.5,-1.7 -52.4,5.7 -11.4,5 -22.500001,10.7 -34.400001,14.4 C 71.1,131.8 58.3,133.9 45.2,134.9 c -1.9,0.1 -3.8,0.2 -5.7,0.5 -2.4,0.4 -3.1,-0.2 -2.6,-2.7 2.1,-11 5.4,-21.7 10.5,-31.6 17.3,-33.499998 44.399999,-54.499998 81,-63 8.1,-1.9 16.4,-2.6 24.7,-2.6 55.7,0 104.3,39.400002 115.5,93.7 1.5,6.3 1.5,6.2 -4.8,5.8 z"
     id="path97"
     inkscape:connector-curvature="0"
     style="fill:#c7cfe3" /></svg>