<?xml version="1.0" encoding="UTF-8" standalone="no"?>
<!-- Generator: Adobe Illustrator 22.0.0, SVG Export Plug-In . SVG Version: 6.00 Build 0)  -->

<svg
   xmlns:dc="http://purl.org/dc/elements/1.1/"
   xmlns:cc="http://creativecommons.org/ns#"
   xmlns:rdf="http://www.w3.org/1999/02/22-rdf-syntax-ns#"
   xmlns:svg="http://www.w3.org/2000/svg"
   xmlns="http://www.w3.org/2000/svg"
   xmlns:sodipodi="http://sodipodi.sourceforge.net/DTD/sodipodi-0.dtd"
   xmlns:inkscape="http://www.inkscape.org/namespaces/inkscape"
   version="1.1"
   id="Слой_1"
   x="0px"
   y="0px"
   viewBox="0 0 439.22464 439.38626"
   xml:space="preserve"
   sodipodi:docname="settings.svg"
   width="439.22464"
   height="439.38626"
   inkscape:version="0.92.1 r15371"><metadata
     id="metadata77"><rdf:RDF><cc:Work
         rdf:about=""><dc:format>image/svg+xml</dc:format><dc:type
           rdf:resource="http://purl.org/dc/dcmitype/StillImage" /></cc:Work></rdf:RDF></metadata><defs
     id="defs75" /><sodipodi:namedview
     pagecolor="#ffffff"
     bordercolor="#666666"
     borderopacity="1"
     objecttolerance="10"
     gridtolerance="10"
     guidetolerance="10"
     inkscape:pageopacity="0"
     inkscape:pageshadow="2"
     inkscape:window-width="1920"
     inkscape:window-height="1003"
     id="namedview73"
     showgrid="false"
     inkscape:zoom="0.236"
     inkscape:cx="231.24132"
     inkscape:cy="215.34495"
     inkscape:window-x="-9"
     inkscape:window-y="-9"
     inkscape:window-maximized="1"
     inkscape:current-layer="Слой_1" /><style
     type="text/css"
     id="style68">
	.st0{fill:#C7CFE3;}
</style><path
     class="st0"
     d="m 436.64132,259.44132 c -10.6,-7.5 -20.8,-15.6 -31.6,-22.8 -6.1,-4.1 -9.9,-8.3 -8.1,-16.1 0.5,-2.4 0.2,-5 -0.1,-7.5 -0.5,-3.4 0.7,-5.4 3.5,-7.4 12.2,-8.7 24.2,-17.7 36.4,-26.4 2,-1.4 2.9,-2.8 2.3,-5.3 -5.9,-27.8 -16.6,-53.6 -32,-77.400004 -1.3,-2.1 -2.8,-2.9 -5.3,-2.5 -13.6,2.3 -27.3,4.2 -40.9,6.700004 -5.6,1 -10.1,0.9 -13.7,-4.400004 -2,-3 -5.1,-5.3 -7.8,-7.7 -1.6,-1.5 -2.3,-3 -1.9,-5.2 2.5,-15.3 4.7,-30.6 7.3,-45.8 0.5,-2.8 -0.2,-4.1 -2.5,-5.6 -23.5,-15.3 -49,-25.7999996 -76.4,-31.79999963 -3,-0.7 -4.8,0.1 -6.6,2.70000003 -7.5,10.5999996 -15.6,20.7999996 -22.7,31.5999996 -3.9,5.9 -8.1,9.1 -15.3,7.7 -2.6,-0.5 -5.3,-0.2 -8,0.1 -3.3,0.4 -5.4,-0.7 -7.4,-3.5 -8.6,-12.1 -17.5,-23.9 -26.1,-35.9999996 -1.9,-2.60000003 -3.7,-3.10000003 -6.6,-2.50000003 -27.2,6.00000003 -52.6,16.39999963 -76.000004,31.59999963 -2.5,1.6 -3.3,3.2 -2.8,6 2.3,13.6 4.2,27.3 6.700004,40.9 1.1,5.6 0.3,9.8 -4.600004,13.2 -2.8,2 -5.1,4.8 -7.4,7.5 -1.7,1.900004 -3.3,2.500004 -6,2.100004 -15.1,-2.600004 -30.2,-4.800004 -45.3,-7.200004 -2.7,-0.4 -4.2,0.2 -5.7,2.5 -15.3,23.500004 -25.7999996,49.000004 -31.79999963,76.400004 -0.7,3 0.1,4.8 2.70000003,6.6 10.6999996,7.6 20.9999996,15.8 31.9999996,23.1 5.8,3.8 8.6,8 7.3,15 -0.5,2.4 -0.3,5 0.1,7.5 0.5,3.7 -0.7,6 -3.9,8.2 -12,8.4 -23.7,17.3 -35.5999996,25.8 -2.60000003,1.9 -3.10000003,3.7 -2.50000003,6.7 5.50000003,25.1 14.79999963,48.6 28.09999963,70.5 5.5,9.1 5.5,8.9 15.8,7.2 13.5,-2.2 27,-4.2 40.7,-6.3 1.3,-0.6 2.2,0.4 3.2,1.4 4.1,4.1 8.2,8.3 12.400004,12.3 1.2,1.2 1.5,2.3 1.2,4 -2.500004,15.1 -4.700004,30.3 -7.200004,45.3 -0.6,3.5 0.2,5.3 3.2,7.2 23.500004,15.1 48.800004,25.5 76.100004,31.3 2.7,0.6 4.2,-0.2 5.7,-2.4 7.7,-10.8 16,-21.3 23.4,-32.4 3.9,-5.8 8,-8.7 15,-7.3 2.7,0.5 5.7,0.2 8.5,-0.1 3,-0.3 4.8,0.7 6.6,3.2 8.8,12.3 17.9,24.5 26.7,36.8 1.4,2 2.8,2.8 5.3,2.3 27.7,-6 53.6,-16.5 77.3,-32.1 1.8,-1.1 3,-2.1 2.5,-4.7 -2.6,-15.3 -4.8,-30.6 -7.4,-45.8 -0.4,-2.5 -0.3,-4.3 1.8,-6.2 3.8,-3.4 7.4,-7.2 11,-10.9 1.5,-1.6 2.9,-2.3 5.2,-1.9 15.1,2.5 30.3,4.6 45.3,7.3 3.2,0.6 4.7,-0.2 6.4,-2.8 15.3,-23.5 25.7,-49.1 31.7,-76.5 0.7,-3.1 0.1,-4.6 -2.2,-6.2 z m -218.1,55.6 c -52.9,-0.2 -95.5,-43.7 -95.3,-97 0.2,-52 43.8,-95.1 95.9,-94.9 53.2,0.2 96.2,43.2 96.1,96.3 -0.1,52.8 -43.6,95.8 -96.7,95.6 z"
     id="path70"
     inkscape:connector-curvature="0"
     style="fill:#c7cfe3" /></svg>