<?xml version="1.0" encoding="UTF-8" standalone="no"?>
<!-- Created with Inkscape (http://www.inkscape.org/) -->

<svg
   xmlns:dc="http://purl.org/dc/elements/1.1/"
   xmlns:cc="http://creativecommons.org/ns#"
   xmlns:rdf="http://www.w3.org/1999/02/22-rdf-syntax-ns#"
   xmlns:svg="http://www.w3.org/2000/svg"
   xmlns="http://www.w3.org/2000/svg"
   xmlns:sodipodi="http://sodipodi.sourceforge.net/DTD/sodipodi-0.dtd"
   xmlns:inkscape="http://www.inkscape.org/namespaces/inkscape"
   width="114.3268mm"
   height="67.071869mm"
   viewBox="0 0 114.3268 67.071869"
   version="1.1"
   id="svg42"
   inkscape:version="0.92.1 r15371"
   sodipodi:docname="burger.svg">
  <defs
     id="defs36" />
  <sodipodi:namedview
     id="base"
     pagecolor="#ffffff"
     bordercolor="#666666"
     borderopacity="1.0"
     inkscape:pageopacity="0.0"
     inkscape:pageshadow="2"
     inkscape:zoom="0.35"
     inkscape:cx="-266.80651"
     inkscape:cy="92.464277"
     inkscape:document-units="mm"
     inkscape:current-layer="layer1"
     showgrid="false"
     inkscape:window-width="1920"
     inkscape:window-height="1003"
     inkscape:window-x="-9"
     inkscape:window-y="-9"
     inkscape:window-maximized="1" />
  <metadata
     id="metadata39">
    <rdf:RDF>
      <cc:Work
         rdf:about="">
        <dc:format>image/svg+xml</dc:format>
        <dc:type
           rdf:resource="http://purl.org/dc/dcmitype/StillImage" />
        <dc:title></dc:title>
      </cc:Work>
    </rdf:RDF>
  </metadata>
  <g
     inkscape:label="Layer 1"
     inkscape:groupmode="layer"
     id="layer1"
     transform="translate(-50.181841,-106.22597)">
    <path
       inkscape:connector-curvature="0"
       class="st0"
       d="M 155.32726,117.07388 H 53.594961 c -1.87854,0 -3.41312,-1.53458 -3.41312,-3.41312 v -4.02167 c 0,-1.87854 1.53458,-3.41312 3.41312,-3.41312 H 155.32726 c 1.87854,0 3.41312,1.53458 3.41312,3.41312 v 4.02167 c 0.0265,1.87854 -1.50812,3.41312 -3.41312,3.41312 z"
       id="path12"
       style="stroke-width:0.26458332" />
    <path
       inkscape:connector-curvature="0"
       class="st0"
       d="M 158.26413,145.41076 H 71.877671 c -1.87854,0 -3.41312,-1.53458 -3.41312,-3.41313 v -4.02166 c 0,-1.87854 1.53458,-3.41313 3.41312,-3.41313 h 86.386459 c 1.87854,0 3.41313,1.53459 3.41313,3.41313 v 4.02166 c 0.0265,1.87855 -1.50813,3.41313 -3.41313,3.41313 z"
       id="path14"
       style="stroke-width:0.26458332" />
    <path
       inkscape:connector-curvature="0"
       class="st0"
       d="M 161.12163,173.29784 H 53.594961 c -1.87854,0 -3.41312,-1.53458 -3.41312,-3.41312 v -4.02167 c 0,-1.87854 1.53458,-3.41312 3.41312,-3.41312 H 161.09517 c 1.87854,0 3.41313,1.53458 3.41313,3.41312 v 4.02167 c 0.0265,1.905 -1.50813,3.41312 -3.38667,3.41312 z"
       id="path16"
       style="stroke-width:0.26458332" />
  </g>
</svg>
