<?xml version="1.0" encoding="UTF-8" standalone="no"?>
<!-- Generator: Adobe Illustrator 22.0.0, SVG Export Plug-In . SVG Version: 6.00 Build 0)  -->

<svg
   xmlns:dc="http://purl.org/dc/elements/1.1/"
   xmlns:cc="http://creativecommons.org/ns#"
   xmlns:rdf="http://www.w3.org/1999/02/22-rdf-syntax-ns#"
   xmlns:svg="http://www.w3.org/2000/svg"
   xmlns="http://www.w3.org/2000/svg"
   xmlns:sodipodi="http://sodipodi.sourceforge.net/DTD/sodipodi-0.dtd"
   xmlns:inkscape="http://www.inkscape.org/namespaces/inkscape"
   version="1.1"
   id="Слой_1"
   x="0px"
   y="0px"
   viewBox="0 0 640.20001 640.20001"
   xml:space="preserve"
   sodipodi:docname="button.svg"
   width="640.20001"
   height="640.20001"
   inkscape:version="0.92.1 r15371"><metadata
     id="metadata23"><rdf:RDF><cc:Work
         rdf:about=""><dc:format>image/svg+xml</dc:format><dc:type
           rdf:resource="http://purl.org/dc/dcmitype/StillImage" /></cc:Work></rdf:RDF></metadata><defs
     id="defs21" /><sodipodi:namedview
     pagecolor="#ffffff"
     bordercolor="#666666"
     borderopacity="1"
     objecttolerance="10"
     gridtolerance="10"
     guidetolerance="10"
     inkscape:pageopacity="0"
     inkscape:pageshadow="2"
     inkscape:window-width="1920"
     inkscape:window-height="1003"
     id="namedview19"
     showgrid="false"
     inkscape:zoom="0.827"
     inkscape:cx="323.80002"
     inkscape:cy="328.89999"
     inkscape:window-x="-9"
     inkscape:window-y="-9"
     inkscape:window-maximized="1"
     inkscape:current-layer="Слой_1" /><style
     type="text/css"
     id="style10">
	.st0{fill:#700FC7;}
	.st1{fill:none;stroke:#700FC7;stroke-width:11;stroke-miterlimit:10;}
</style><path
     class="st0"
     d="m 199.40002,361.20002 c 28.3,28.2 53,53.6 78.7,78 1,1 4.5,4.1 4.8,8.6 0.5,7.6 -8.3,16.5 -15.9,16 -4.3,-0.3 -7.3,-3.5 -8.3,-4.5 -34.1,-35.3 -69,-69.9 -104,-104.2 -6.6,-6.5 -5.4,-9.7 0.4,-15.4 34.9,-34.5 69.8,-69.1 104,-104.3 0.9,-0.9 3.8,-4 8,-4.3 7.8,-0.6 17,8.4 16.4,16 -0.3,4 -3.2,6.7 -4.4,7.9 -23.4,22 -45.7,45.1 -68.3,67.9 -2.8,2.9 -7,4.8 -8,9.6 3.2,3.2 7.1,1.5 10.6,1.5 55.7,0.1 111.4,0.1 167.1,0 38.8,-0.1 68.7,-25.1 72.1,-60.1 3.7,-38.8 -19.9,-68.9 -59.9,-75.8 -1.3,-0.2 -5.1,-1 -7.9,-4.2 -5.3,-6 -4.7,-18.4 1.2,-22.4 3.5,-2.4 8.1,-1 9.7,-0.8 47.5,5.1 84.6,46.5 84.8,94.4 0.1,49.1 -36.4,92.4 -85.1,94.6 -58.9,2.7 -118,1.2 -176.9,1.5 -5.2,0 -10.2,0 -19.1,0 z"
     id="path12"
     inkscape:connector-curvature="0"
     style="fill:#700fc7" /><path
     class="st0"
     d="M 394.80002,158.80002"
     id="path14"
     inkscape:connector-curvature="0"
     style="fill:#700fc7" /><circle
     class="st1"
     cx="320.10001"
     cy="320.10001"
     r="314.60001"
     id="circle16"
     style="fill:none;stroke:#700fc7;stroke-width:11;stroke-miterlimit:10" /></svg>