<?xml version="1.0" encoding="UTF-8" standalone="no"?>
<!-- Generator: Adobe Illustrator 22.0.0, SVG Export Plug-In . SVG Version: 6.00 Build 0)  -->

<svg
   xmlns:dc="http://purl.org/dc/elements/1.1/"
   xmlns:cc="http://creativecommons.org/ns#"
   xmlns:rdf="http://www.w3.org/1999/02/22-rdf-syntax-ns#"
   xmlns:svg="http://www.w3.org/2000/svg"
   xmlns="http://www.w3.org/2000/svg"
   xmlns:sodipodi="http://sodipodi.sourceforge.net/DTD/sodipodi-0.dtd"
   xmlns:inkscape="http://www.inkscape.org/namespaces/inkscape"
   version="1.1"
   id="Слой_1"
   x="0px"
   y="0px"
   viewBox="0 0 473.79868 190.27576"
   xml:space="preserve"
   sodipodi:docname="car.svg"
   width="473.79868"
   height="190.27576"
   inkscape:version="0.92.1 r15371"><metadata
     id="metadata66"><rdf:RDF><cc:Work
         rdf:about=""><dc:format>image/svg+xml</dc:format><dc:type
           rdf:resource="http://purl.org/dc/dcmitype/StillImage" /></cc:Work></rdf:RDF></metadata><defs
     id="defs64" /><sodipodi:namedview
     pagecolor="#ffffff"
     bordercolor="#666666"
     borderopacity="1"
     objecttolerance="10"
     gridtolerance="10"
     guidetolerance="10"
     inkscape:pageopacity="0"
     inkscape:pageshadow="2"
     inkscape:window-width="1920"
     inkscape:window-height="1003"
     id="namedview62"
     showgrid="false"
     inkscape:zoom="0.236"
     inkscape:cx="294.01709"
     inkscape:cy="68.90041"
     inkscape:window-x="-9"
     inkscape:window-y="-9"
     inkscape:window-maximized="1"
     inkscape:current-layer="Слой_1" /><style
     type="text/css"
     id="style53">
	.st0{fill:#C8CFE3;}
</style><path
     class="st0"
     d="m 472.41709,151.37535 c -1.5,-2.7 -1.5,-5 -0.8,-8 3,-13.4 3.5,-26.7 -3.8,-39.2 -0.4,-0.6 -0.8,-1.1 -0.4,-2.2 2.5,-6.499999 1.7,-8.999999 -4.2,-12.499999 -17.5,-10.5 -36.1,-18.6 -55.6,-24.1 -28.8,-8.3 -56.7,-18.4 -82.9,-33.1 -38.6,-21.7 -80.4,-31.60000011 -124.7,-32.20000011 -40.1,-0.6 -79.9,2.40000001 -119.499999,8.40000001 -4.3,0.7 -9,0.3 -12.8,3.4000001 -15,12.1 -28.8,25.3 -40,41 -7.9,11.1 -14.3,22.8 -16.1,36.6 -0.2,1.3 -0.7,2.5 -1.5,3.6 -11.1000005,14.599999 -12.0000005,30.599999 -7.8000005,47.899999 2.2,8.9 6.3,13.5 15.7000005,13.2 3.3,-0.1 5.5,0.4 5.2,-4.2 -0.2,-3.6 0.8,-7.3 1.8,-10.8 6.4,-22.2 29.1,-35.6 52.4,-31 21.6,4.3 37.999999,26.5 34.899999,47.9 -0.7,4.7 0.5,5.3 4.8,5.4 65.5,0.7 131,1.6 196.5,2.4 9.5,0.1 18.9,0 28.5,0 -4,-21.3 1.9,-38.7 20.5,-50.1 15.5,-9.6 32,-9.2 47.2,0.8 18.1,11.9 23.3,29.4 18.8,50.8 13.7,-1.5 26.8,-2.3 39.7,-5 5.4,-1.2 6.9,-4.1 4.1,-9 z m -294.5,-85.399999 c -23.8,-2.3 -47.7,-4.6 -71.5,-6.7 -2.2,-0.2 -3.6,-0.6 -4.4,-2.9 -2.799999,-8 -5.899999,-15.9 -7.999999,-24.1 -1.8,-6.9 0.2,-9.9 7.299999,-11.1 6.9,-1.1 13.8,-2.1 20.7,-2.9 13.9,-1.5 27.8,-2.7 37.3,-3.1 15.5,-0.4 15.6,-0.4 17.4,10.5 2,12.1 4.3,24.2 5.3,36.5 0.3,3.6 -0.9,4.2 -4.1,3.8 z m 161.2,13.1 c -7.8,0 -15.6,-0.4 -23.4,-1 -30.7,-2.7 -61.3,-5.5 -91.9,-8.5 -4.1,-0.4 -9.3,1.4 -11.9,-1.8 -2.2,-2.7 -1.6,-7.6 -2.3,-11.5 -2.3,-12.6 -4.8,-25.1 -8.9,-37.3 -1,-2.9 -0.2,-3.5 2.4,-3.4 3,0.1 6,0 8,0 46.6,3.2 87.5,19.6 125.7,43.6 3.4,2.1 6.2,5 8.4,8.4 3.9,6.3 1.3,11.5 -6.1,11.5 z"
     id="path55"
     inkscape:connector-curvature="0"
     style="fill:#c8cfe3" /><path
     class="st0"
     d="m 385.71709,112.17535 c -20.8,-0.1 -39.4,18.2 -39.5,39 -0.1,20.5 18.3,38.9 38.9,39.1 20.6,0.1 39,-18.1 39.2,-38.7 0.1,-20.7 -18.1,-39.3 -38.6,-39.4 z m -0.5,65 c -15.3,-0.1 -26.1,-10.9 -26,-26.1 0.1,-15.2 11,-26 26.3,-25.9 15.2,0.1 25.9,11.1 25.7,26.4 -0.2,15.2 -10.8,25.7 -26,25.6 z"
     id="path57"
     inkscape:connector-curvature="0"
     style="fill:#c8cfe3" /><path
     class="st0"
     d="m 67.617091,112.17535 c -20.6,0 -38.9,18.5 -38.9,39 0.1,21 18.4,39.2 39.3,39 20.5,-0.1 38.799999,-18.6 38.699999,-39.2 0,-20.5 -18.599999,-38.8 -39.099999,-38.8 z m 0.3,65 c -15.5,0 -26.1,-10.5 -26.2,-25.9 -0.1,-15.2 10.5,-26 25.5,-26.1 15.4,-0.1 26.4,10.5 26.5,25.7 0.2,15.3 -10.6,26.3 -25.8,26.3 z"
     id="path59"
     inkscape:connector-curvature="0"
     style="fill:#c8cfe3" /></svg>