<?xml version="1.0" encoding="UTF-8" standalone="no"?>
<!-- Generator: Adobe Illustrator 22.0.0, SVG Export Plug-In . SVG Version: 6.00 Build 0)  -->

<svg
   xmlns:dc="http://purl.org/dc/elements/1.1/"
   xmlns:cc="http://creativecommons.org/ns#"
   xmlns:rdf="http://www.w3.org/1999/02/22-rdf-syntax-ns#"
   xmlns:svg="http://www.w3.org/2000/svg"
   xmlns="http://www.w3.org/2000/svg"
   xmlns:sodipodi="http://sodipodi.sourceforge.net/DTD/sodipodi-0.dtd"
   xmlns:inkscape="http://www.inkscape.org/namespaces/inkscape"
   version="1.1"
   id="Слой_1"
   x="0px"
   y="0px"
   viewBox="0 0 564.9295 549.36847"
   xml:space="preserve"
   sodipodi:docname="galka.svg"
   width="564.9295"
   height="549.36847"
   inkscape:version="0.92.1 r15371"><metadata
     id="metadata51"><rdf:RDF><cc:Work
         rdf:about=""><dc:format>image/svg+xml</dc:format><dc:type
           rdf:resource="http://purl.org/dc/dcmitype/StillImage" /></cc:Work></rdf:RDF></metadata><defs
     id="defs49" /><sodipodi:namedview
     pagecolor="#ffffff"
     bordercolor="#666666"
     borderopacity="1"
     objecttolerance="10"
     gridtolerance="10"
     guidetolerance="10"
     inkscape:pageopacity="0"
     inkscape:pageshadow="2"
     inkscape:window-width="1920"
     inkscape:window-height="1003"
     id="namedview47"
     showgrid="false"
     inkscape:zoom="0.81"
     inkscape:cx="282.3"
     inkscape:cy="251.49346"
     inkscape:window-x="-9"
     inkscape:window-y="-9"
     inkscape:window-maximized="1"
     inkscape:current-layer="Слой_1" /><style
     type="text/css"
     id="style10">
	.st0{fill:#C7CFE3;}
</style><path
     class="st0"
     d="m 353.5,212.975 c 0.6,-0.8 1.2,-1.5 1.9,-2.3 2.7,0.2 2.6,-1.5 2.3,-3.4 0.3,-0.3 0.5,-0.6 0.8,-0.8 1,-0.6 2.1,-0.4 3.2,-0.5 3.5,-0.4 4.7,-1.8 4.5,-5.4 -0.1,-1.4 -0.2,-2.7 0.5,-3.9 v 0 c 4.2,-1.9 5,-1.5 4.9,2.1 1.7,-1.3 1.3,-2.4 -0.3,-3.4 -1,-0.6 -2.2,-1.2 -1.4,-2.8 22.3,-27.7 45.3,-54.9 68.9,-81.4 23.3,-26.2 47.2,-51.8 73.3,-75.3 13.8,-12.5 28.1,-24.5 44.9,-32.9 1.8,-0.9 3.7,-1.7 5.5,-2.5 0.8,-0.6 1.7,-0.7 2.3,0.1 0.4,0.6 -0.2,1.1 -0.8,1.5 -16.2,14.1 -30.3,30.2 -44,46.7 -9.6,11.6 -18.7,23.6 -27.7,35.7 -3.8,1.8 -5.6,5 -6.5,8.9 v 0 c -3.3,-0.9 -5.8,0.1 -7.1,3.4 -0.8,2 -2,1.8 -3.5,0.7 -1.1,-0.8 -1.8,-2 -3.7,-2.8 2.3,2.6 2.9,4.4 0.1,6.6 -2.3,1.8 -2.2,4.5 0,6.8 1.1,1.1 2.7,2.2 1.3,4.1 -24,35.2 -46.6,71.3 -68.4,107.9 -28.8,48.5 -56.4,97.7 -83.7,147 -23,41.4 -45.6,83 -69.5,123.9 -10.5,17.9 -21.2,35.7 -33,52.9 -4.7,6.9 -8.5,7.3 -14.2,1.2 -7.6,-8.2 -12.7,-18.1 -18,-27.8 -15.8,-29.2 -30.7,-58.8 -47.3,-87.6 -3.8,-6.7 -7.7,-13.3 -11.5,-19.9 0,-5.3 -2.2,-8.7 -6.6,-10.5 -4.7,-7.5 -9.3,-15 -14.2,-22.4 -30.5,-46.9 -64.7,-90.8 -104.1,-130.6 -0.7,-0.7 -1.3,-1.6 -2.4,-2.9 8.8,1 16.8,3.1 24.5,5.8 32.7,11.5 60.4,31.3 86.6,53.3 20.9,17.5 40.2,36.7 58.5,56.8 1,2.3 -1.1,2.2 -2.2,2.7 -2.3,0.9 -3.4,2.4 -3,4.9 0.3,2.1 1.7,3.4 3.7,3.7 2.5,0.4 4,-1.1 4.7,-3.5 0.3,-0.9 0.1,-2.3 1.7,-2.2 10.9,11.4 20.8,23.7 30.5,36 2.8,3.6 2.8,3.6 5.6,-0.2 23.5,-32.3 47.4,-64.5 71.6,-96.3 20.3,-26.7 40.8,-53.2 61.8,-79.3 1.7,-2.1 3.4,-4.1 5.1,-6.2 1.7,-1.6 3.4,-3.4 4.4,-5.9 z"
     id="path12"
     inkscape:connector-curvature="0"
     style="fill:#c7cfe3" /><path
     class="st0"
     d="m 472.6,111.975 c 0.2,-1.4 -0.6,-2.1 -1.6,-3 -3.5,-3.1 -3.3,-6.7 0.5,-9.4 2.7,-1.9 0,-2.5 -0.4,-3.7 -0.3,-0.9 -2.2,-1.3 -0.9,-2.6 1.3,-1.3 2.2,-0.2 2.9,0.8 1.1,1.3 2.2,2.7 3.5,4.4 2.4,-6.8 5.3,-8.3 9,-5.3 -2.3,4.1 -5.1,7.8 -8.1,11.4 -0.5,-0.3 -0.8,-0.7 -1.2,-1.1 -1.1,-1.2 -2.4,-1.3 -3.5,-0.1 -1,1.2 -0.4,2.2 0.7,3.1 0.5,0.4 1.1,0.7 1.5,1.3 -0.7,1.5 -0.7,3.4 -2.4,4.2 z"
     id="path14"
     inkscape:connector-curvature="0"
     style="fill:#c7cfe3" /><path
     class="st0"
     d="m 174.2,364.775 c -0.7,0.6 -0.6,1.5 -0.7,2.3 -0.4,3.1 -2.6,4.6 -5.3,4.7 -2.7,0 -4.9,-1.6 -5.4,-4.6 -0.5,-3.1 0.8,-5.2 3.7,-6.4 1,-0.4 2.6,0.2 2.7,-1.7 2.1,1.6 3.7,3.5 5,5.7 z"
     id="path16"
     inkscape:connector-curvature="0"
     style="fill:#c7cfe3" /><path
     class="st0"
     d="m 366.6,196.775 c 0.1,0.7 0,1.4 0.2,2 1.4,7.1 -1.5,9.7 -8.3,7.7 2.4,-3.4 4.8,-6.9 8.1,-9.7 z"
     id="path18"
     inkscape:connector-curvature="0"
     style="fill:#c7cfe3" /><path
     class="st0"
     d="m 475.1,107.975 c -2.2,-0.2 -4,-0.9 -4,-3.5 0,-1.8 1.2,-2.9 3,-3.1 2.4,-0.3 3.4,1 3.4,3.3 -0.4,1.4 -1.4,2.4 -2.4,3.3 z"
     id="path20"
     inkscape:connector-curvature="0"
     style="fill:#c7cfe3" /><path
     class="st0"
     d="m 120.4,398.975 c 1.4,-1 2.5,-0.8 3.4,0.6 0.7,1 1.3,2.1 2.3,2.9 2.7,2.1 3,4.4 0.9,7.1 -2.9,-3.1 -4.1,-7.2 -6.6,-10.6 z"
     id="path22"
     inkscape:connector-curvature="0"
     style="fill:#c7cfe3" /><path
     class="st0"
     d="m 369.8,192.575 c 0.1,1.1 0.9,1.5 1.9,1.7 1.6,0.3 2.1,1.6 2.1,3 -0.1,1.6 -1.3,2.6 -2.6,3.3 -0.6,0.3 -1.4,0.3 -1.8,-0.4 -0.9,-1.7 1.3,-2 1.7,-3.2 -1.4,-1.6 -3,0.5 -4.5,-0.3 1,-1.4 1.3,-3.3 3.2,-4.1 z"
     id="path24"
     inkscape:connector-curvature="0"
     style="fill:#c7cfe3" /><path
     class="st0"
     d="m 485.7,93.275 c 0,-6.3 0.7,-7.3 6.5,-8.9 -2,3.1 -3.9,6.2 -6.5,8.9 z"
     id="path26"
     inkscape:connector-curvature="0"
     style="fill:#c7cfe3" /><path
     class="st0"
     d="m 357.7,207.375 c -0.3,1.8 3.8,0.5 2.2,3 -1.2,1.9 -2.9,1.4 -4.5,0.4 0.7,-1.2 1.5,-2.3 2.3,-3.4 z"
     id="path28"
     inkscape:connector-curvature="0"
     style="fill:#c7cfe3" /><path
     class="st0"
     d="m 353.5,212.975 c 0.2,3.4 -1.9,4.9 -4.8,5.8 1.2,-2.2 2.8,-4.2 4.8,-5.8 z"
     id="path30"
     inkscape:connector-curvature="0"
     style="fill:#c7cfe3" /><path
     class="st0"
     d="m 152.2,383.275 c 0.1,1.1 2.3,1.8 0.7,3.1 -1,0.9 -2,0.1 -2.9,-0.6 -0.9,-0.6 -1.8,-1.3 -2.7,-1.7 -1.3,-0.6 -2.6,-2.1 -4,-0.7 -1.4,1.5 0.1,2.7 0.9,3.9 0.2,0.3 0.6,0.6 0.8,0.9 0.6,1.1 2.4,2 1.2,3.4 -1.4,1.6 -2,-1.3 -3.5,-0.9 -0.1,2.7 -0.6,5.3 -3.4,6.7 -1.4,0.7 -1.3,1.6 -0.3,2.5 0.8,0.8 1.6,1.8 0.2,2.7 -1.3,0.8 -1.9,-0.4 -2.6,-1.2 -0.9,-1 -1.6,-2.2 -2.6,-3.2 -2.4,-2.5 -4.2,-5.2 -2.1,-8.7 1.9,-3.2 5,-3.3 9,-1.9 -2,-2.3 -3.3,-4.1 -4.8,-5.7 -0.8,-0.9 -1.5,-1.9 -0.4,-2.8 1,-0.9 1.7,0.4 2.3,1 1.3,1.2 2.2,3.4 4.3,0.5 0.8,-1.1 2.9,-0.7 4.2,0.1 1.2,0.7 2.4,1.3 3.8,1.3 0.9,-0.2 1.8,-0.1 1.9,1.3 z"
     id="path32"
     inkscape:connector-curvature="0"
     style="fill:#c7cfe3" /><path
     class="st0"
     d="m 152.2,383.275 c -0.7,-0.4 -1.3,-0.8 -2,-1.3 -1.2,-2.7 -2.1,-5.5 0.2,-7.9 1.5,-1.5 3.6,-2.5 5.9,-1.5 2.4,1 3.4,2.7 3.4,5.4 0,2.7 -1.3,4.3 -3.6,5.2 -1.3,0.5 -2.6,0.4 -3.9,0.1 z"
     id="path34"
     inkscape:connector-curvature="0"
     style="fill:#c7cfe3" /><path
     class="st0"
     d="m 160.3,368.575 c 0.8,2.3 1.4,4.7 4.6,4.6 0.8,0 1.4,0.1 1.5,0.9 0.2,0.8 -0.5,1.1 -1.1,1.4 -0.2,0.1 -0.5,0.2 -0.7,0.3 -1.7,0.5 -3,-0.3 -3.8,-1.5 -1.8,-2.6 -6,-3.5 -5.8,-7.6 0.1,-1 1.4,-1.4 1.7,-0.8 0.8,1.6 4.4,-0.7 3.6,2.7 z"
     id="path36"
     inkscape:connector-curvature="0"
     style="fill:#c7cfe3" /><path
     class="st0"
     d="m 128.3,395.775 c 0.5,2.3 1.4,4.4 4.4,4.3 1.1,0 2,0 2.1,1.2 0,1.1 -1.1,1.4 -2,1.7 -0.5,0.1 -1.2,0.2 -1.6,0 -2.8,-2 -5.4,-4.2 -7.4,-7 -0.4,-0.6 -1.3,-1.9 -0.3,-2.5 1.5,-1 3,0.8 4.8,0.3 0.7,-0.4 0.7,1 0,2 z"
     id="path38"
     inkscape:connector-curvature="0"
     style="fill:#c7cfe3" /><path
     class="st0"
     d="m 165.3,365.975 c 0.1,-1.8 1,-2.9 2.8,-2.8 1.8,0.1 3.1,1 2.9,3.1 -0.1,1.9 -1.1,2.6 -2.9,2.6 -2,0 -2.9,-1.1 -2.8,-2.9 z"
     id="path40"
     inkscape:connector-curvature="0"
     style="fill:#c7cfe3" /><path
     class="st0"
     d="m 136.6,395.575 c -1.8,-0.3 -3,-1.2 -3,-3.2 0,-1.9 1.2,-3 3.1,-3.1 1.9,-0.1 3.1,1 3.3,2.9 0.2,2.3 -1.6,2.8 -3.4,3.4 z"
     id="path42"
     inkscape:connector-curvature="0"
     style="fill:#c7cfe3" /><path
     class="st0"
     d="m 154.5,374.675 c 1.7,0.5 3.1,1.5 3.1,3.2 0,1.8 -1.4,3 -3.3,2.9 -1.8,0 -2.9,-1.1 -2.9,-3.1 0,-2.1 1.3,-2.7 3.1,-3 z"
     id="path44"
     inkscape:connector-curvature="0"
     style="fill:#c7cfe3" /></svg>