<?xml version="1.0" encoding="UTF-8" standalone="no"?>
<!-- Generator: Adobe Illustrator 22.0.0, SVG Export Plug-In . SVG Version: 6.00 Build 0)  -->

<svg
   xmlns:dc="http://purl.org/dc/elements/1.1/"
   xmlns:cc="http://creativecommons.org/ns#"
   xmlns:rdf="http://www.w3.org/1999/02/22-rdf-syntax-ns#"
   xmlns:svg="http://www.w3.org/2000/svg"
   xmlns="http://www.w3.org/2000/svg"
   xmlns:sodipodi="http://sodipodi.sourceforge.net/DTD/sodipodi-0.dtd"
   xmlns:inkscape="http://www.inkscape.org/namespaces/inkscape"
   version="1.1"
   id="Слой_1"
   x="0px"
   y="0px"
   viewBox="0 0 330.26944 293.70731"
   xml:space="preserve"
   sodipodi:docname="icon3.svg"
   width="330.26944"
   height="293.70731"
   inkscape:version="0.92.1 r15371"><metadata
     id="metadata265"><rdf:RDF><cc:Work
         rdf:about=""><dc:format>image/svg+xml</dc:format><dc:type
           rdf:resource="http://purl.org/dc/dcmitype/StillImage" /></cc:Work></rdf:RDF></metadata><defs
     id="defs263" /><sodipodi:namedview
     pagecolor="#ffffff"
     bordercolor="#666666"
     borderopacity="1"
     objecttolerance="10"
     gridtolerance="10"
     guidetolerance="10"
     inkscape:pageopacity="0"
     inkscape:pageshadow="2"
     inkscape:window-width="713"
     inkscape:window-height="480"
     id="namedview261"
     showgrid="false"
     inkscape:zoom="0.236"
     inkscape:cx="156.9002"
     inkscape:cy="134.52015"
     inkscape:window-x="0"
     inkscape:window-y="0"
     inkscape:window-maximized="0"
     inkscape:current-layer="Слой_1" /><style
     type="text/css"
     id="style256">
	.st0{fill:#C7CFE3;}
</style><path
     class="st0"
     d="m 281.1002,191.08715 c -28.3,28.2 -53,53.6 -78.7,78 -1,1 -4.5,4.1 -4.8,8.6 -0.5,7.6 8.3,16.5 15.9,16 4.3,-0.3 7.3,-3.5 8.3,-4.5 34.1,-35.3 69,-69.9 104,-104.2 6.6,-6.5 5.4,-9.7 -0.4,-15.4 -34.9,-34.5 -69.8,-69.1 -104,-104.299998 -0.9,-0.9 -3.8,-4 -8,-4.3 -7.8,-0.6 -17,8.4 -16.4,16 0.3,4 3.2,6.7 4.4,7.9 23.4,21.999998 45.7,45.099998 68.3,67.899998 2.8,2.9 7,4.8 8,9.6 -3.2,3.2 -7.1,1.5 -10.6,1.5 -55.7,0.1 -111.4,0.1 -167.1,0 -38.799995,-0.1 -68.699995,-25.1 -72.099995,-60.1 -3.7,-38.799998 19.9,-68.899998 59.9,-75.799998 1.3,-0.2 5.1,-1 7.9,-4.2 5.299995,-6 4.699995,-18.3999999 -1.2,-22.3999999 -3.5,-2.4 -8.1,-0.99999995 -9.7,-0.79999995 C 37.300205,5.6871521 0.20020498,47.087152 2.0498028e-4,94.987152 -0.09979502,144.08715 36.400205,187.38715 85.100205,189.58715 c 58.899995,2.7 117.999995,1.2 176.899995,1.5 5.2,0 10.2,0 19.1,0 z"
     id="path258"
     inkscape:connector-curvature="0"
     style="fill:#c7cfe3" /></svg>