<?xml version="1.0" encoding="UTF-8" standalone="no"?>
<!-- Generator: Adobe Illustrator 22.0.0, SVG Export Plug-In . SVG Version: 6.00 Build 0)  -->

<svg
   xmlns:dc="http://purl.org/dc/elements/1.1/"
   xmlns:cc="http://creativecommons.org/ns#"
   xmlns:rdf="http://www.w3.org/1999/02/22-rdf-syntax-ns#"
   xmlns:svg="http://www.w3.org/2000/svg"
   xmlns="http://www.w3.org/2000/svg"
   xmlns:sodipodi="http://sodipodi.sourceforge.net/DTD/sodipodi-0.dtd"
   xmlns:inkscape="http://www.inkscape.org/namespaces/inkscape"
   version="1.1"
   id="Слой_1"
   x="0px"
   y="0px"
   viewBox="0 0 347.12595 311.979"
   xml:space="preserve"
   sodipodi:docname="icon-technical-support.svg"
   width="347.12595"
   height="311.979"
   inkscape:version="0.92.1 r15371"><metadata
     id="metadata134"><rdf:RDF><cc:Work
         rdf:about=""><dc:format>image/svg+xml</dc:format><dc:type
           rdf:resource="http://purl.org/dc/dcmitype/StillImage" /></cc:Work></rdf:RDF></metadata><defs
     id="defs132" /><sodipodi:namedview
     pagecolor="#ffffff"
     bordercolor="#666666"
     borderopacity="1"
     objecttolerance="10"
     gridtolerance="10"
     guidetolerance="10"
     inkscape:pageopacity="0"
     inkscape:pageshadow="2"
     inkscape:window-width="713"
     inkscape:window-height="480"
     id="namedview130"
     showgrid="false"
     inkscape:zoom="0.236"
     inkscape:cx="173.52593"
     inkscape:cy="155.979"
     inkscape:window-x="0"
     inkscape:window-y="0"
     inkscape:window-maximized="0"
     inkscape:current-layer="Слой_1" /><style
     type="text/css"
     id="style119">
	.st0{fill:#C6CEE1;}
</style><path
     class="st0"
     d="m 306.12593,276.5 c 0.3,2.3 -0.5,4.3 -2.1,5.8 -5.9,5.7 -11.7,11.6 -18,16.8 -5.8,4.7 -10.6,1.6 -15,-3.1 -21.7,-23.1 -43.6,-46 -65.3,-69 -26.3,-27.9 -52.5,-56 -79.1,-83.7 -5.4,-5.7 -6.3,-9.7 0,-15 6.1,-5.1 11.8,-10.6 17.4,-16.1 4.6,-4.6 8.3,-4.8 12.9,0.3 29.5,32.1 59.1,64 88.7,95.9 18.2,19.7 36.4,39.4 54.6,59 2.6,2.7 5.1,5.3 5.9,9.1 z"
     id="path121"
     inkscape:connector-curvature="0"
     style="fill:#c6cee1" /><path
     class="st0"
     d="m 347.12593,51.6 c 0,8 -0.1,15.8 -1.3,23.7 -4.4,30.1 -24.8,45.6 -54.8,39.9 -14.9,-2.8 -26.3,2.4 -36.5,11.7 -8.1,7.4 -15.6,15.4 -23.1,23.5 -3.7,4 -6.3,4.3 -10,-0.2 -4.8,-5.9 -10.2,-11.3 -15.7,-16.6 -3.6,-3.5 -3.9,-6 -0.2,-9.7 6.2,-6.2 11.8,-13.2 18,-19.5 8.7,-8.8 12,-19.5 11.9,-31.5 0,-2.4 0.3,-4.9 0,-7.3 -4,-28.5 11.3,-45.1 34.6,-56.9 3.5,-1.8 7,-3.6 10.6,-5.2 3.1,-1.4 6.2,-5.3 9.8,-1.6 3.7,3.9 0.1,7.3 -1.6,10.7 -4.1,7.8 -8.2,15.6 -12.2,23.5 -6.5,12.5 -2.6,22 12.8,31 11.3,6.6 22.2,4.2 29.2,-6.7 5.9,-9.2 11.4,-18.7 17.1,-28.1 1.3,-2.1 2.4,-4.5 5.4,-4.2 3.2,0.3 3.5,3.5 3.9,5.5 1.1,5.9 1.4,11.9 2.1,18 z"
     id="path123"
     inkscape:connector-curvature="0"
     style="fill:#c6cee1" /><path
     class="st0"
     d="m 188.02593,2 c -12.1,6 -24.4,11.8 -36.4,17.9 -11.7,6 -22.9,12.7 -30.7,23.8 -7.1,10.2 -7,17.4 0.6,27.5 3.3,4.4 6.6,8.9 10.5,12.6 4.8,4.5 5.3,7.8 0,12.4 -7.3,6.4 -14.1,13.5 -21,20.4 -4,4 -7.3,4.4 -11.399996,-0.1 -5.7,-6.3 -12.3,-11.8 -20,-15.7 -14.7,-7.6 -29.6,1.5 -29.3,18 0.2,9.7 -8,13.3 -13.8,17.9 -5.3,4.2 -10.2,-1.3 -14,-5.1 -6.7,-6.7 -13.0000002,-13.7 -19.6000002,-20.5 -2.1,-2.2 -4.1,-5.1 -2.1,-7.2 6.4,-6.6 11.9000002,-15 22.4000002,-15.7 12.3,-0.9 19.5,-7.7 20,-20 0.2,-5 2.1,-8.5 5.7,-11.8 18.6,-17.3 39.4,-31.7 61.099996,-44.7 11.4,-6.8 23.5,-10.8 37.2,-10.5 13.4,0.3 26.8,-0.7 40.2,-1.2 0.2,0.6 0.4,1.3 0.6,2 z"
     id="path125"
     inkscape:connector-curvature="0"
     style="fill:#c6cee1" /><path
     class="st0"
     d="m 167.12593,221.2 c -1.3,1.5 -2.4,2.9 -3.7,4.2 -25.7,26.9 -51.3,53.8 -77.099996,80.6 -7.5,7.8 -11.2,7.9 -19.2,0.7 -3.6,-3.3 -7.2,-6.6 -10.7,-10 -8,-7.6 -8.2,-10.2 -0.8,-18 16.6,-17.4 33.3,-34.7 49.999996,-52.1 9.7,-10.1 19.6,-20 29.1,-30.3 3.4,-3.7 5.7,-4.3 9.2,-0.2 6.2,7.1 12.9,13.8 19.3,20.7 1.4,1.4 2.5,2.8 3.9,4.4 z"
     id="path127"
     inkscape:connector-curvature="0"
     style="fill:#c6cee1" /></svg>