<?xml version="1.0" encoding="UTF-8" standalone="no"?>
<!-- Generator: Adobe Illustrator 22.0.0, SVG Export Plug-In . SVG Version: 6.00 Build 0)  -->

<svg
   xmlns:dc="http://purl.org/dc/elements/1.1/"
   xmlns:cc="http://creativecommons.org/ns#"
   xmlns:rdf="http://www.w3.org/1999/02/22-rdf-syntax-ns#"
   xmlns:svg="http://www.w3.org/2000/svg"
   xmlns="http://www.w3.org/2000/svg"
   xmlns:sodipodi="http://sodipodi.sourceforge.net/DTD/sodipodi-0.dtd"
   xmlns:inkscape="http://www.inkscape.org/namespaces/inkscape"
   version="1.1"
   id="Слой_1"
   x="0px"
   y="0px"
   viewBox="0 0 245.3 422"
   xml:space="preserve"
   sodipodi:docname="load.svg"
   width="245.3"
   height="422"
   inkscape:version="0.92.1 r15371"><metadata
     id="metadata245"><rdf:RDF><cc:Work
         rdf:about=""><dc:format>image/svg+xml</dc:format><dc:type
           rdf:resource="http://purl.org/dc/dcmitype/StillImage" /></cc:Work></rdf:RDF></metadata><defs
     id="defs243" /><sodipodi:namedview
     pagecolor="#ffffff"
     bordercolor="#666666"
     borderopacity="1"
     objecttolerance="10"
     gridtolerance="10"
     guidetolerance="10"
     inkscape:pageopacity="0"
     inkscape:pageshadow="2"
     inkscape:window-width="713"
     inkscape:window-height="480"
     id="namedview241"
     showgrid="false"
     inkscape:zoom="0.236"
     inkscape:cx="114.8"
     inkscape:cy="211"
     inkscape:window-x="0"
     inkscape:window-y="0"
     inkscape:window-maximized="0"
     inkscape:current-layer="Слой_1" /><style
     type="text/css"
     id="style224">
	.st0{fill:#FFAA02;}
</style><path
     class="st0"
     d="M 98,422 C 78.8,421.6 62.9,419.5 50.3,415.6 37.7,411.7 27.6,406.1 20.2,398.8 12.7,391.5 7.5,382.5 4.5,371.6 1.5,360.8 0,348.4 0,334.6 V 13.8 c 21.4,-0.1 42.7,-0.3 64.1,-0.4 0.1,103 0.3,206 0.4,309 0,7.8 0.6,14.4 1.9,19.7 1.2,5.3 3.5,9.9 6.7,13.6 3.2,3.7 7.5,6.6 13.1,8.5 5.5,2 12.5,3.5 21.1,4.5 z"
     id="path226"
     inkscape:connector-curvature="0"
     style="fill:#ffaa02" /><g
     id="g236"
     transform="translate(-385.2,-289)"><path
       class="st0"
       d="M 530.8,708.6 576,697.3 v -58.6 h -45.8 c 0.1,28.2 0.3,51.5 0.6,69.9 z"
       id="path228"
       inkscape:connector-curvature="0"
       style="fill:#ffaa02" /><path
       class="st0"
       d="m 627.9,638.7 c 0,-3.8 0,-7.7 0,-11.7 l 0.6,-47.6 H 576 v 59.3 z"
       id="path230"
       inkscape:connector-curvature="0"
       style="fill:#ffaa02" /><path
       class="st0"
       d="M 530.2,579.5 H 576 v -59.3 h -45.1 c -0.4,16.7 -0.6,36.4 -0.7,59.3 z"
       id="path232"
       inkscape:connector-curvature="0"
       style="fill:#ffaa02" /><path
       class="st0"
       d="m 576,520.2 h 53.2 l 0.4,-33.2 0.9,-44.1 c -2.9,-3.5 -11,-5.2 -24.2,-5.2 -11.2,0 -21.3,0.6 -30.3,1.8 z"
       id="path234"
       inkscape:connector-curvature="0"
       style="fill:#ffaa02" /></g><path
     class="st0"
     d="m 242.9,112 c -16.7,-3.3 -33.4,-6.6 -50.1,-10 -16,3.3 -32.1,6.6 -48.1,10 16,-37.3 32.1,-74.7 48.1,-112 16.6,37.3 33.3,74.7 50.1,112 z"
     id="path238"
     inkscape:connector-curvature="0"
     style="fill:#ffaa02" /></svg>