<?xml version="1.0" encoding="UTF-8" standalone="no"?>
<!-- Generator: Adobe Illustrator 22.0.0, SVG Export Plug-In . SVG Version: 6.00 Build 0)  -->

<svg
   xmlns:dc="http://purl.org/dc/elements/1.1/"
   xmlns:cc="http://creativecommons.org/ns#"
   xmlns:rdf="http://www.w3.org/1999/02/22-rdf-syntax-ns#"
   xmlns:svg="http://www.w3.org/2000/svg"
   xmlns="http://www.w3.org/2000/svg"
   xmlns:sodipodi="http://sodipodi.sourceforge.net/DTD/sodipodi-0.dtd"
   xmlns:inkscape="http://www.inkscape.org/namespaces/inkscape"
   version="1.1"
   id="Слой_1"
   x="0px"
   y="0px"
   viewBox="0 0 554.53448 556.85822"
   xml:space="preserve"
   sodipodi:docname="out.svg"
   width="554.53448"
   height="556.85822"
   inkscape:version="0.92.1 r15371"><metadata
     id="metadata117"><rdf:RDF><cc:Work
         rdf:about=""><dc:format>image/svg+xml</dc:format><dc:type
           rdf:resource="http://purl.org/dc/dcmitype/StillImage" /></cc:Work></rdf:RDF></metadata><defs
     id="defs115" /><sodipodi:namedview
     pagecolor="#ffffff"
     bordercolor="#666666"
     borderopacity="1"
     objecttolerance="10"
     gridtolerance="10"
     guidetolerance="10"
     inkscape:pageopacity="0"
     inkscape:pageshadow="2"
     inkscape:window-width="713"
     inkscape:window-height="480"
     id="namedview113"
     showgrid="false"
     inkscape:zoom="0.236"
     inkscape:cx="283.225"
     inkscape:cy="267.41071"
     inkscape:window-x="0"
     inkscape:window-y="0"
     inkscape:window-maximized="0"
     inkscape:current-layer="Слой_1" /><style
     type="text/css"
     id="style106">
	.st0{fill:#C8CFE3;}
</style><path
     class="st0"
     d="m 0.025,280.54749 c 0.3,-34.2 5.5,-63.9 15.7,-92.8 10.8,-30.7 26.7,-58.7 47.3,-83.9 9.1,-11.1 19.1,-21.4 29.8,-31 7.5,-6.7 18,-8.1 26.8,-3.7 8.9,4.4 14.2,13.6 13.3,23.6 -0.6,6.6 -3.5,12 -8.4,16.4 -12.9,11.5 -24.3,24.3 -34.3,38.4 -14.9,20.9 -25.9,43.7 -33.1,68.4 -6.7,23.2 -9.7,46.8 -8.8,71 1.7,50.2 18,95.2 49,134.7 26.2,33.4 59.4,57.5 99.1,72.5 16.7,6.3 34,10.5 51.7,12.8 14.5,1.8 29,2.2 43.6,1.3 23.9,-1.5 47,-6.5 69.3,-15.3 25,-9.8 47.5,-23.6 67.6,-41.3 22.8,-20.1 41,-43.9 54.4,-71.2 9,-18.4 15.4,-37.6 19.2,-57.7 3.5,-18.7 4.9,-37.5 3.7,-56.4 -2.9,-47 -18.7,-89.2 -47.5,-126.6 -8.5,-11 -17.9,-21.1 -28.3,-30.4 -14.5,-12.9 -10.2,-35.6 7.9,-41.5 8.6,-2.8 16.6,-1.2 23.4,4.8 21.4,18.9 39.3,40.7 54,65.1 15.6,26 26.6,53.8 32.9,83.4 4.9,22.9 6.9,46.1 6,69.5 -1.6,40.3 -11.6,78.5 -29.8,114.4 -12,23.6 -27.1,45 -45.3,64.3 -24.4,26 -52.8,46.5 -85.1,61.6 -21.1,9.9 -43.1,16.9 -66,21.2 -21.2,4 -42.6,5.4 -64.2,4.4 -40.5,-2 -78.7,-12.3 -114.6,-31.1 -24,-12.5 -45.7,-28.3 -65.1,-47.2 -30.1,-29.4 -52.5,-63.8 -67.2,-103.2 -6.6,-17.8 -11.2,-36.1 -14,-54.9 -2.2,-14.2 -3.2,-28.6 -3,-39.6 z"
     id="path108"
     inkscape:connector-curvature="0"
     style="fill:#c8cfe3" /><path
     class="st0"
     d="m 253.225,17.04749 c 3.4,-9.1999996 11.3,-15.7999996 20.5,-16.89999959 11.4,-1.30000001 22.8,6.09999999 26.8,17.99999959 0.3,71.4 0.5,142.9 0.8,214.3 -3.6,10 -12,17.3 -21.7,18.3 -12,1.3 -24.7,-7 -26.3,-15.8 -0.2,-1.1 -0.2,-2.1 -0.2,-3.2 0,-54.8 0,-109.5 0,-164.3 0,-0.6 0,-1.3 0,-1.8"
     id="path110"
     inkscape:connector-curvature="0"
     style="fill:#c8cfe3" /></svg>