<?xml version="1.0" encoding="UTF-8" standalone="no"?>
<!-- Generator: Adobe Illustrator 22.0.0, SVG Export Plug-In . SVG Version: 6.00 Build 0)  -->

<svg
   xmlns:dc="http://purl.org/dc/elements/1.1/"
   xmlns:cc="http://creativecommons.org/ns#"
   xmlns:rdf="http://www.w3.org/1999/02/22-rdf-syntax-ns#"
   xmlns:svg="http://www.w3.org/2000/svg"
   xmlns="http://www.w3.org/2000/svg"
   xmlns:sodipodi="http://sodipodi.sourceforge.net/DTD/sodipodi-0.dtd"
   xmlns:inkscape="http://www.inkscape.org/namespaces/inkscape"
   version="1.1"
   id="Слой_1"
   x="0px"
   y="0px"
   viewBox="0 0 857.32501 555.37903"
   xml:space="preserve"
   sodipodi:docname="money.svg"
   width="857.32501"
   height="555.37903"
   inkscape:version="0.92.1 r15371"><metadata
     id="metadata222"><rdf:RDF><cc:Work
         rdf:about=""><dc:format>image/svg+xml</dc:format><dc:type
           rdf:resource="http://purl.org/dc/dcmitype/StillImage" /></cc:Work></rdf:RDF></metadata><defs
     id="defs220" /><sodipodi:namedview
     pagecolor="#ffffff"
     bordercolor="#666666"
     borderopacity="1"
     objecttolerance="10"
     gridtolerance="10"
     guidetolerance="10"
     inkscape:pageopacity="0"
     inkscape:pageshadow="2"
     inkscape:window-width="713"
     inkscape:window-height="480"
     id="namedview218"
     showgrid="false"
     inkscape:zoom="0.236"
     inkscape:cx="429.125"
     inkscape:cy="236.38889"
     inkscape:window-x="0"
     inkscape:window-y="0"
     inkscape:window-maximized="0"
     inkscape:current-layer="Слой_1" /><style
     type="text/css"
     id="style161">
	.st0{fill:#C5CDDF;}
	.st1{fill:#FEFEFE;}
</style><path
     class="st0"
     d="m 14.825,554.09012 c -5.5,-1.5 -9.4,-4.9 -12.1,-9.8 -2.4,-5.8 -2.5,-11.9 -2.4,-18.1 0.1,-77.5 0.1,-154.9 0,-232.4 0,-3.8 0.3,-6.9 4,-9.4 3.9,-2.7 3.7,-8.2 -0.2,-11.2 -3.1,-2.3 -3.8,-5 -3.8,-8.6 0.1,-81.5 0,-162.9 0.1,-244.399997 0,-1.5 -0.3,-3 0.4,-4.4 1.4,-7.9999997 7.1,-11.9999997 13.9,-14.99999968 1.8,-0.7 3.6,-0.3 5.4,-0.3 222.2,0 444.3,0 666.5,0 1.2,0 2.3,0 3.5,0 2.9,0.1 5.2,1.39999998 6.3,4.09999998 1.1,2.9 -1.2,4 -3.1,5.4999997 -6.6,5.1 -6.3,12.9 0.6,16 4.4,1.9 9.3,-0.2 11.5,-4.9 0.7,-1.5 1,-3.2 1.2,-4.8 0.4,-3.4 2.1,-5 5.6,-4.9 2,0.1 4,0 7,-0.8 -4.7,-1.5999997 -4.1,-4.5999997 -3.1,-7.6999997 1,-3.29999998 3.9,-2.39999998 6.3,-2.49999998 2.2,-0.1 4.3,-0.1 6.4,0.89999998 0.9,0.4 1.9,1 2.8,0.5 5.6,-2.69999998 11.5,-1.29999998 17.2,-1.39999998 29.3,-0.2 58.7,-0.1 88,-0.1 2.9,0 5.6,0.2 8.2,1.49999998 8.1,3.9 12.3,10.2999997 12.3,19.3999997 0,170.899997 0,341.899997 -0.1,512.799997 0,9.1 -6.5,16.9 -16.4,19.8 -4.1,-1.5 -8,0.6 -12,0.6 -246.4,0 -492.7,0 -739.1,0 -4.6,0 -8,-0.3 -8.9,-6 -0.6,-3.5 -3.8,-5.3 -7.4,-5.6 -3.7,-0.2 -7.3,1.8 -8,4.7 -1.4,6.3 -4.4,6.3 -10.1,6.2 -10,-0.2 -20,0.8 -30.1,0.6 -3.5,0 -7,0.6 -10.4,-0.3 z"
     id="path163"
     inkscape:connector-curvature="0"
     style="fill:#c5cddf" /><path
     class="st0"
     d="m 844.925,1.8901233 c -5.9,-1.19999998 -11.9,-0.89999998 -17.9,-0.89999998 -28.8,0 -57.7,0 -86.5,0 -1.7,0 -3.6,-0.6 -5.2,0.59999998 -0.1,1.7 1.2,2.4 2,3.4 1.2,1.4 1.3,2.6 -0.2,3.9 -1.4,1.1 -2.7,1.1999997 -4,-0.1 -1.8,-2 -3.4,-4.1 -5.3,-6 -2.4,-2.49999998 -5.6,-1.89999998 -8.5,-1.3 -2.1,0.4 -1.6,2.6 -2,4.2 -0.2,0.9 -0.7,2.1 0.6,2.6 0.9,0.3 1.6,-0.4 2.1,-1 0.5,-0.5 0.8,-1 1.3,-1.5 1.1,-1 1,-4.3 3.7,-2.4 2.2,1.5 1,3.5 0,5.3 -2.4,4.1999997 -6.2,6.1999997 -10.9,5.5999997 -4,-0.5 -5.5,0.3 -5.6,4.7 -0.1,6.2 -6.3,11.3 -12.1,10.8 -7,-0.6 -11.4,-5.9 -10.8,-13 0.3,-3.9 3,-6.1 5.5,-8.4999997 1,-1 4.1,-0.4 3,-3 -0.8,-1.9 -2.2,-3.8 -4.7,-4 -1.2,-0.1 -2.3,-0.1 -3.5,-0.1 -121.3,0 -242.6,0 -364,0 -102,0 -204,0 -306,0 -0.5,0 -1,-0.1 -1.5,-0.19999998 2.2,-1.3 4.5,-0.9 6.8,-0.9 164.3,0 328.6,0 493,0 57.5,0 115,0 172.5,0 49.8,0 99.6,0 149.4,0 3.3,-0.1 6.4,-0.5 8.8,1.79999998 z"
     id="path165"
     inkscape:connector-curvature="0"
     style="fill:#c5cddf" /><path
     class="st0"
     d="m 14.825,554.09012 c 8.2,0 16.3,0 24.5,-0.1 1.3,0 3.4,0.5 3.9,-0.2 3.4,-4.3 7.8,-2 11.8,-2 0.2,0 0.4,-0.2 0.5,-0.1 6.6,4.7 6,-1.4 7.6,-4.8 2.1,-4.5 6,-6.7 11,-6.3 5,0.4 8.8,3.3 9.4,8.2 0.6,4.9 3.2,5.3 7.1,5.2 77.1,-0.1 154.3,-0.1 231.4,-0.1 167.6,0 335.2,0 502.7,0 3.7,0 7.4,0.8 10.6,-2.7 2,-2.1 3.4,2.2 5.6,2.7 -3.4,1.7 -7.1,1.4 -10.7,1.4 -246.9,0 -493.8,0 -740.7,0 -22.3,0 -44.6,0 -66.8,0 -2.8,0.1 -5.5,0.4 -7.9,-1.2 z"
     id="path167"
     inkscape:connector-curvature="0"
     style="fill:#c5cddf" /><path
     class="st0"
     d="m 0.825,15.890123 c 0.1,2.8 0.2,5.7 0.2,8.5 0,78.799997 0,157.599997 0,236.399997 0,4.7 -0.9,9.8 6.4,9.7 1.2,0 2.1,1.2 2.2,2.4 0.5,4.1 0.6,8.3 0,12.4 -0.3,2 -1.9,2.7 -3.7,2.7 -4.1,-0.1 -5.1,2.2 -4.9,5.7 0.1,1 0,2 0,3 0,77.1 0.1,154.2 -0.1,231.4 0,5.6 1.7,10.8 1.9,16.2 -2.3,-2.7 -2.7,-6 -2.7,-9.4 0,-87.8 0.1,-175.5 0.1,-263.3 0,-82.3 0,-164.5 0,-246.799997 -0.1,-3 -0.7,-6.1 0.6,-8.9 z"
     id="path169"
     inkscape:connector-curvature="0"
     style="fill:#c5cddf" /><path
     class="st1"
     d="m 428.325,42.890123 c 80,0 160,0.1 240,-0.1 5.2,0 7.2,1.3 8.1,6.6 4.2,26.5 14.9,50.4 31.3,71.499997 25.6,32.9 59.1,53.1 100.1,60.7 7.1,1.3 7.1,1.2 7.1,8.4 0,58.5 0,117 0.1,175.5 0,4.8 -1.8,6.2 -6.1,6.9 -37.7,6.3 -69.3,24 -94.6,52.5 -20.8,23.4 -33.7,51 -38.5,82.1 -0.7,4.2 -2.2,5.4 -6.4,5.4 -160.3,-0.1 -320.6,-0.1 -480.9,0 -4.9,0 -6.8,-1.2 -7.6,-6.4 -3.4,-23.3 -12.3,-44.5 -25.5,-63.9 -20.3,-29.9 -47.6,-50.8 -81.7,-62.7 -8.8,-3.1 -17.9,-5.4 -27.1,-6.7 -3.3,-0.4 -4.5,-1.6 -4.5,-5 0.1,-59.8 0.1,-119.6 -0.1,-179.5 0,-5.5 3.2,-5.9 6.8,-6.4 19.5,-3 37.7,-9.8 54.5,-19.9 31.6,-18.9 54.4,-45.4 68.2,-79.599997 4.7,-11.7 8.1,-23.6 9.7,-36.1 0.3,-2.3 1.3,-3.3 3.5,-3.3 2.5,0 5,0 7.5,0 78.8,0.1 157.5,0.1 236.1,0 z"
     id="path171"
     inkscape:connector-curvature="0"
     style="fill:#fefefe" /><path
     class="st1"
     d="m 814.925,463.89012 c 0,14.5 -0.1,29 0.1,43.4 0,3.6 -1,5 -4.8,5 -29,-0.1 -57.9,-0.1 -86.9,0 -4.5,0 -5,-1.8 -4.1,-5.5 3.8,-15.9 10.1,-30.6 19.6,-43.9 16.8,-23.2 39.1,-38.6 66.6,-46.3 1,-0.3 1.9,-0.6 2.9,-0.8 6.2,-1.4 6.6,-1.2 6.6,5.1 0,14.4 0,28.7 0,43 z"
     id="path173"
     inkscape:connector-curvature="0"
     style="fill:#fefefe" /><path
     class="st1"
     d="m 90.225,512.29012 c -14.2,0 -28.3,-0.2 -42.5,0.1 -4.5,0.1 -5.6,-1.4 -5.6,-5.8 0.2,-28.7 0.1,-57.3 0,-86 0,-4 0.9,-5.6 5.2,-4.4 47.6,12.7 77.7,42.9 90.4,90.5 1.5,5.5 1.2,5.6 -4.5,5.6 -14.3,0 -28.7,0 -43,0 0,0 0,0 0,0 z"
     id="path175"
     inkscape:connector-curvature="0"
     style="fill:#fefefe" /><path
     class="st1"
     d="m 42.225,90.990123 c 0,-14.2 0.2,-28.3 -0.1,-42.5 -0.1,-4.5 1.5,-5.7 5.8,-5.7 28.5,0.1 56.9,0 85.4,0 5.1,0 5.7,0.7 4.5,5.5 -9.1,35.8 -29.9,62.599997 -62.4,80.099997 -8.8,4.7 -18.2,8 -28,10.3 -4.1,1 -5.3,-0.2 -5.3,-4.3 0.2,-14.4 0.1,-28.9 0.1,-43.399997 z"
     id="path177"
     inkscape:connector-curvature="0"
     style="fill:#fefefe" /><path
     class="st1"
     d="m 814.925,91.290123 c 0,13.999997 0,27.999997 0,41.899997 0,6.1 -0.4,6.5 -6.3,4.9 -42.9,-11.5 -71.7,-38.299997 -86.4,-80.199997 -1,-2.8 -1.9,-5.7 -2.6,-8.6 -1.4,-5.7 -0.8,-6.4 5,-6.4 20.6,0 41.3,0 61.9,0 7.7,0 15.3,0.2 23,-0.1 4.2,-0.1 5.5,1.5 5.4,5.5 -0.1,14.4 0,28.7 0,43 0,0 0,0 0,0 z"
     id="path179"
     inkscape:connector-curvature="0"
     style="fill:#fefefe" /><path
     class="st0"
     d="m 96.925,542.49012 c 0,3.9 -3.3,7.2 -6.9,7.1 -1.2,-0.1 -2.3,-0.4 -2.7,-1.7 -0.3,-1.3 0.1,-2.3 1.4,-2.8 1.4,-0.5 3.4,-0.6 2.6,-2.7 -0.8,-2.1 -2.8,-1.1 -4.4,-0.8 -4.1,0.9 -7,-0.4 -8.1,-4.5 -1,-4 0.9,-6.8 4.6,-8.3 1.6,-0.6 3.5,-1.1 4.4,0.8 1,2 -0.3,3.1 -2.2,3.5 -1.1,0.3 -1.9,0.9 -1.6,2.1 0.5,1.8 2,1.3 3.3,1.1 6.6,-0.6 9.6,1.4 9.6,6.2 z"
     id="path181"
     inkscape:connector-curvature="0"
     style="fill:#c5cddf" /><path
     class="st0"
     d="m 703.725,17.690123 c 0,3.6 -3,6.9 -6.5,6.7 -3.8,-0.2 -6.2,-2.2 -6.3,-6.2 -0.1,-3.6 3,-6.8 6.4,-6.8 3.3,0 6.4,3 6.4,6.3 z"
     id="path183"
     inkscape:connector-curvature="0"
     style="fill:#c5cddf" /><path
     class="st0"
     d="m 713.525,4.4901233 c -0.7,1.1 0.2,3.6 -2.1,3.1 -1.7,-0.3 -2.4,-2.1 -2.4,-3.9 0,-1.7 0.8,-2.89999998 2.7,-2.6 2.1,0.4 1.7,2.1 1.8,3.4 z"
     id="path185"
     inkscape:connector-curvature="0"
     style="fill:#c5cddf" /><path
     class="st0"
     d="m 72.225,553.99012 c -1.9,-0.4 -5.1,1 -5.4,-3 -0.2,-2.9 3.1,-6 6.3,-5.7 3.2,0.3 5.3,2 5.7,5.3 0.3,2.8 -0.9,3.4 -6.6,3.4 z"
     id="path187"
     inkscape:connector-curvature="0"
     style="fill:#c5cddf" /><path
     class="st0"
     d="m 637.525,275.39012 c 0,-112.1 -92.9,-211.299997 -215.7,-207.699997 -109.5,3.2 -200.5,92.399997 -202.3,206.299997 -1.9,118.7 93.9,215.5 213.4,213.3 113,-2 206.2,-95.5 204.6,-211.9 z m -42.6,2.9 c -0.1,91.1 -74.4,164.6 -162.8,166.4 -93.5,1.9 -171.2,-75.2 -169.9,-169.5 1.2,-89.8 74,-162.3 161.4,-164.9 95.3,-2.7 172.5,76 171.3,168 z"
     id="path189"
     inkscape:connector-curvature="0"
     style="fill:#c5cddf" /><path
     class="st0"
     d="m 443.825,200.09012 c -0.8,0 -1.7,-0.1 -2.1,0.9 0.2,7.7 -2.5,15.3 -0.5,23.1 0.8,3 0,5.2 -4.1,5.6 -6,0.6 -8.6,3.7 -8.7,8.9 -0.1,4.9 2.9,8.2 8.9,8.7 3.4,0.3 4.3,1.8 4.1,4.8 -0.1,1.3 -0.4,2.7 0.4,3.9 8.5,2.8 17.1,5.2 25.4,8.5 12.3,4.8 24.2,10.2 32.6,21.2 8.9,11.7 10.8,25.1 10.1,39.2 -1.8,35.1 -31.6,54.1 -61.7,56.6 -5.3,0.4 -7.1,2 -6.7,7.1 0.3,4 -0.1,8 0.1,12 0.1,2.8 -1,3.7 -3.8,3.9 -15.7,0.8 -15.7,0.8 -15.7,-14.9 0,-7.5 0,-7.4 -7.1,-8.5 -24.5,-3.7 -45.9,-14.1 -65,-29.6 -2.4,-1.9 -2.9,-3.5 -0.7,-6.1 6,-6.9 11.8,-13.9 17.5,-21.1 2.7,-3.4 4.6,-1.1 6.5,0.5 10.7,9.2 22.9,15.9 36.2,20.6 12.5,4.4 12.5,4.5 12.5,-8.7 0,-14.2 -0.1,-28.3 0.1,-42.5 0,-3.4 -1,-5.2 -4.4,-5.9 -3.7,-0.8 -7.4,-2.1 -11,-3.2 -0.8,-0.8 -1.9,-1.4 -2.8,-2 -3.2,-2.3 -3.2,-3.9 0.2,-6.3 5.1,-3.6 6.9,-7.4 5.4,-11.6 -1.8,-4.9 -6.8,-7.1 -11.8,-5.3 -4.8,1.8 -7.1,7.5 -4.9,12.4 0.7,1.7 2.1,3 2.5,4.8 0.5,2.1 0.2,3.8 -2.7,2.8 -2.6,-0.4 -4.7,-1.8 -6.9,-3.1 -3.8,-4.3 -9.3,-6 -13.9,-9 -14,-11.8 -17.1,-27.6 -16.2,-44.6 1.8,-35.3 31.6,-54.9 61.3,-56.8 4.2,-0.3 5.3,-1.5 5.2,-5.5 -0.2,-10.3 0,-10.3 10.4,-10.3 8.9,0 9.1,0 8.8,8.9 -0.2,4.7 0.7,6.9 6.2,7.4 19.7,2 37.6,9.4 54.2,20.1 2.4,1.6 2.6,2.9 1,5.2 -5,6.9 -9.9,13.8 -14.6,20.8 -2.4,3.6 -4.7,4.7 -8.2,1.6 -1.2,-1.1 -2.7,-1.9 -4.1,-2.8 -2.8,-3.8 -6.6,-6.1 -11.4,-6.7 -4.4,-0.5 -8.5,-1.8 -12.7,-3.3 v 0 c -2.5,-0.5 -5.2,-1 -7.9,-1.7 z"
     id="path191"
     inkscape:connector-curvature="0"
     style="fill:#c5cddf" /><path
     class="st0"
     d="m 392.725,280.09012 c 2.6,-2.8 -0.9,-4 -1.8,-5.6 -3.3,-6.1 -1.3,-13.4 4.9,-16.6 6,-3.2 13.4,-0.3 16.1,6.2 1.9,4.5 0.5,10.8 -4.2,13.1 -5.5,2.6 -4.1,4.9 -0.9,7.9 -4.7,-1.5 -9.7,-2.4 -14.1,-5 z"
     id="path193"
     inkscape:connector-curvature="0"
     style="fill:#c5cddf" /><path
     class="st0"
     d="m 441.825,255.99012 c -0.6,-4.2 -2,-6.6 -7.2,-6.7 -5.2,-0.1 -8.8,-5.9 -8.6,-11.1 0.3,-5.8 4,-10.5 9.8,-10.6 5.7,-0.1 5.5,-2.3 3.8,-6.3 -1.5,-3.5 -1.5,-6.6 0.7,-10.1 1.8,-2.8 -0.3,-6.9 1.4,-10.2 0,18.3 0,36.7 0.1,55 z"
     id="path195"
     inkscape:connector-curvature="0"
     style="fill:#c5cddf" /><path
     class="st0"
     d="m 451.925,201.89012 c 5.4,0.9 10.9,1.9 16.4,2.4 4,0.4 6.2,3.9 7.6,7.5 -7.4,-4.7 -16.1,-6.3 -24,-9.9 z"
     id="path197"
     inkscape:connector-curvature="0"
     style="fill:#c5cddf" /><path
     class="st0"
     d="m 371.925,267.89012 c 2.1,0.3 4.2,0.6 5.8,2.4 0.4,0.5 1.3,1.2 1.6,1 6.3,-2.9 5.7,2.2 6.6,5.6 -5.3,-2 -9.7,-5.4 -14,-9 z"
     id="path199"
     inkscape:connector-curvature="0"
     style="fill:#c5cddf" /><path
     class="st0"
     d="m 443.825,200.09012 c 2.9,-0.4 5.6,0.2 8.1,1.8 -2.9,0 -5.7,-0.1 -8.1,-1.8 z"
     id="path201"
     inkscape:connector-curvature="0"
     style="fill:#c5cddf" /><path
     class="st1"
     d="m 441.525,321.89012 c 0,-7.7 0.1,-15.3 0,-23 0,-3.3 1.3,-4.2 4.3,-3 5.8,2.4 11.8,4.4 17.1,8.1 11.7,8.1 13.5,24.7 3.4,34.7 -5.9,5.9 -13.3,8.7 -21.3,10.1 -3.4,0.6 -3.4,-1.6 -3.4,-3.9 -0.1,-7.7 -0.1,-15.4 -0.1,-23 z"
     id="path203"
     inkscape:connector-curvature="0"
     style="fill:#fefefe" /><path
     class="st1"
     d="m 398.725,240.09012 c -5.9,-7.2 -7.5,-15.5 -4.3,-24.1 3.5,-9.3 11.3,-13.9 20.7,-15.9 1.6,-0.3 3.3,-0.1 4.7,-1.2 3.5,0.3 2.5,3 2.5,4.9 0.1,12.3 0,24.5 0,36.8 0,1 0,2 0,3 0.4,8 0,8.3 -7.5,5.3 v 0 c -6.1,1 -14.1,-3.3 -16.1,-8.8 z"
     id="path205"
     inkscape:connector-curvature="0"
     style="fill:#fefefe" /><path
     class="st0"
     d="m 398.725,240.09012 c 5.4,2.9 10.8,5.9 16.1,8.8 -2.6,2 -2.3,4.2 -0.5,6.5 2,2.5 4,4.9 5.9,7.4 1.1,1.4 2.1,2.8 0.4,4.3 -1.7,1.5 -3.1,0.7 -4.3,-0.8 -6,-7.1 -12,-14.3 -18.1,-21.3 -1.5,-1.9 -0.5,-3.3 0.5,-4.9 z"
     id="path207"
     inkscape:connector-curvature="0"
     style="fill:#c5cddf" /><path
     class="st0"
     d="m 488.925,205.29012 c 0.1,3.9 -3,7.4 -6.6,7.4 -1.2,0 -2.4,-0.2 -2.9,-1.5 -0.4,-1.2 -0.2,-2.3 1.1,-2.9 1.4,-0.6 3.9,-0.6 2.8,-3 -0.9,-1.9 -2.9,-0.9 -4.5,-0.6 -4.6,0.8 -7.5,-1.1 -8,-5.1 -0.5,-3.8 2.2,-7.5 5.9,-8 1.3,-0.2 2.9,-0.3 3.3,1.4 0.4,1.4 -0.1,2.6 -1.7,3.1 -1.3,0.4 -3,0.7 -2.4,2.4 0.6,1.9 2.5,1.1 3.9,0.9 5.9,-0.8 9,1.2 9.1,5.9 z"
     id="path209"
     inkscape:connector-curvature="0"
     style="fill:#c5cddf" /><path
     class="st0"
     d="m 414.925,248.99012 c 1.1,0.3 2.3,0.5 3.3,0.8 3,0.9 3.9,-0.5 3.8,-3.2 -0.1,-14.1 -0.2,-28.2 -0.3,-42.3 0,-2 0.1,-4 -2,-5.2 4.1,-0.6 2.9,2.7 2.9,4.5 0.1,11.8 0.3,23.7 0,35.5 -0.1,4.8 1.1,8 5.7,9.8 1.8,0.7 3.5,2 5.1,3.1 0.9,0.6 2.4,1.2 1.6,2.6 -0.7,1.4 -2.4,2.8 -3.6,1.9 -4.9,-3.9 -11.4,-4.1 -16.5,-7.5 z"
     id="path211"
     inkscape:connector-curvature="0"
     style="fill:#c5cddf" /><path
     class="st0"
     d="m 401.825,261.89012 c 3.5,0.3 5.6,2.5 5.8,6.3 0.2,3.5 -3.2,6.8 -6.7,6.5 -3.8,-0.3 -6.1,-2.4 -6.2,-6.4 0,-3.8 2.8,-6.5 7.1,-6.4 z"
     id="path213"
     inkscape:connector-curvature="0"
     style="fill:#c5cddf" /><path
     class="st0"
     d="m 440.825,238.69012 c 0,2.9 0.3,6 -3.9,6.2 -3.4,0.2 -6.2,-2.8 -6.1,-6.5 0.1,-3.8 2.3,-5.9 5.9,-6.1 4.6,-0.2 4.1,3.4 4.1,6.4 z"
     id="path215"
     inkscape:connector-curvature="0"
     style="fill:#c5cddf" /></svg>