<?xml version="1.0" encoding="UTF-8" standalone="no"?>
<!-- Generator: Adobe Illustrator 22.0.0, SVG Export Plug-In . SVG Version: 6.00 Build 0)  -->

<svg
   xmlns:dc="http://purl.org/dc/elements/1.1/"
   xmlns:cc="http://creativecommons.org/ns#"
   xmlns:rdf="http://www.w3.org/1999/02/22-rdf-syntax-ns#"
   xmlns:svg="http://www.w3.org/2000/svg"
   xmlns="http://www.w3.org/2000/svg"
   xmlns:sodipodi="http://sodipodi.sourceforge.net/DTD/sodipodi-0.dtd"
   xmlns:inkscape="http://www.inkscape.org/namespaces/inkscape"
   version="1.1"
   id="Слой_1"
   x="0px"
   y="0px"
   viewBox="0 0 434.2746 313.58936"
   xml:space="preserve"
   sodipodi:docname="promo.svg"
   width="434.2746"
   height="313.58936"
   inkscape:version="0.92.1 r15371"><metadata
     id="metadata159"><rdf:RDF><cc:Work
         rdf:about=""><dc:format>image/svg+xml</dc:format><dc:type
           rdf:resource="http://purl.org/dc/dcmitype/StillImage" /></cc:Work></rdf:RDF></metadata><defs
     id="defs157" /><sodipodi:namedview
     pagecolor="#ffffff"
     bordercolor="#666666"
     borderopacity="1"
     objecttolerance="10"
     gridtolerance="10"
     guidetolerance="10"
     inkscape:pageopacity="0"
     inkscape:pageshadow="2"
     inkscape:window-width="713"
     inkscape:window-height="480"
     id="namedview155"
     showgrid="false"
     inkscape:zoom="0.236"
     inkscape:cx="215.17459"
     inkscape:cy="145.1"
     inkscape:window-x="0"
     inkscape:window-y="0"
     inkscape:window-maximized="0"
     inkscape:current-layer="Слой_1" /><style
     type="text/css"
     id="style136">
	.st0{fill:#C7CFE3;}
	.st1{fill:#F9F9F9;}
	.st2{fill:#F9FAFA;}
</style><path
     class="st0"
     d="m 434.27459,114.38936 c -1.1,23.3 -9.2,42.4 -31.6,53 -2.1,1 -2.4,1.9 -1.8,4.1 2.7,10.6 5.2,21.3 7.7,32 0.2,1 0.5,1.9 0.7,2.9 1.1,5.7 -1.1,9.9 -5.8,11 -4.6,1.1 -8.4,-1.8 -9.9,-7.5 -2.9,-11.6 -5.6,-23.3 -8.4,-34.9 -0.8,-3.2 -1.6,-6.5 -2.2,-9.7 -1,-5.1 1,-8.2 6,-9.9 1.9,-0.6 3.8,-1.1 5.7,-1.8 12.3,-4.6 20.6,-13.1 22.8,-26.2 3.3,-19.6 -0.8,-37.900004 -13,-53.700004 -9.2,-11.9 -21.9,-14.9 -36.3,-11.9 -6.5,1.3 -9.6,-0.7 -11.2,-7.2 -2.6,-10.6 -5.4,-21.3 -7.6,-32 -0.9,-4.2 -2.2,-5 -6.5,-4 -65.5,15.6 -131,31.1 -196.5,46.5 -17.8,4.2 -35.6,8.4 -53.400005,12.5 -6.2,1.4 -10.5,-0.6 -11.6,-5.3 -1.2,-5 1.7,-8.8 8.2,-10.3 34.600005,-8.2 69.200005,-16.3 103.900005,-24.5 51.9,-12.2 103.8,-24.5 155.8,-36.7999999 8.3,-2 11.5,0.2 13.4,8.6 2.5,10.8999999 5.2,21.5999999 7.8,32.4999999 0.5,1.9 0.8,3.4 3.4,3.2 25.8,-1.7 49,17.7 57.5,47.1 1.7,7.3 2.8,14.700004 2.9,22.300004 z"
     id="path138"
     inkscape:connector-curvature="0"
     style="fill:#c7cfe3" /><path
     class="st0"
     d="m 383.07459,190.38936 c -4.1,-25.1 -19.3,-45 -44,-49.5 -2.8,-0.5 -2.9,-1.9 -2.8,-4 0,-12 0,-24 0,-36 0,-9.100004 -2.3,-11.400004 -11.5,-11.400004 -44.2,0 -88.3,0 -132.5,0 0,0 0,0 0,0 -44.7,0 -89.3,0 -134.000005,0 -7.2,0 -10,2.7 -10,9.9 0,12.200004 -0.2,24.300004 0.1,36.500004 0.1,3.5 -0.9,4.8 -4.4,5.5 -14.3,2.8 -25.3,10.7 -33,23.1 -10.19999986,16.4 -12.9999999,34.5 -9.5999999,53.3 4.6,25 17.2999999,43.4 43.7999999,49.1 2.5,0.5 3,1.7 3,4 -0.1,10.8 -0.1,21.7 -0.1,32.5 0,7.4 2.8,10.2 10.3,10.2 89.300005,0 178.600005,0 267.900005,0 6.9,0 9.7,-2.8 9.8,-9.7 0,-10.7 0.1,-21.3 -0.1,-32 -0.1,-3.2 0.6,-4.7 4,-5.3 14,-2.6 24.8,-10.3 32.5,-22 11,-16.6 13.7,-35 10.6,-54.2 z m -19.8,40.1 c -5.8,13.2 -16.1,19.9 -30.2,21.1 -1.5,0.1 -3,0.1 -4.5,0.2 -5.6,0.5 -8.3,3.4 -8.4,9.1 -0.1,10.7 -0.2,21.3 0.1,32 0.1,3.7 -0.8,4.7 -4.6,4.7 -52,-0.1 -104,-0.1 -155.9,-0.1 -30.3,0 -60.600005,-0.1 -91.000005,0.1 -3.7,0 -4.8,-0.8 -4.7,-4.6 0.3,-10.7 0.1,-21.3 0.1,-32 0,-5.7 -2.7,-9.1 -8.3,-9.1 -26,-0.1 -37.5,-17.3 -39.4,-40.6 -1,-11.5 -0.2,-23 4.5,-33.8 5.5,-12.5 15,-19.9 28.6,-21 15,-1.1 14.8,-3.5 14.6,-16.4 -0.1,-10 0.2,-20 -0.1,-30 -0.1,-3.7 0.8,-4.7 4.6,-4.7 41.100005,0.2 82.300005,0.1 123.400005,0.1 0,0 0,0 0,0 41.1,0 82.3,0.1 123.4,-0.1 3.7,0 4.8,0.7 4.7,4.6 -0.3,12.3 -0.1,24.7 -0.1,37 0,5.4 2.6,8.7 7.5,8.7 24.2,0 37.6,14.5 40.1,39.5 1.3,12.1 0.6,24 -4.4,35.3 z"
     id="path140"
     inkscape:connector-curvature="0"
     style="fill:#c7cfe3" /><path
     class="st0"
     d="m 270.47459,170.18936 c 0.1,2.5 -1,4.6 -2.9,6.4 -21.7,21.7 -43.4,43.4 -65.1,65 -3.8,3.8 -8.7,3.9 -12,0.6 -3.3,-3.3 -3.1,-8.1 0.7,-12 21.6,-21.7 43.4,-43.4 65,-65.1 2.8,-2.8 5.9,-3.8 9.5,-2.3 3.1,1.5 4.7,3.9 4.8,7.4 z"
     id="path142"
     inkscape:connector-curvature="0"
     style="fill:#c7cfe3" /><path
     class="st0"
     d="m 223.27459,175.78936 c 0,10.9 -10.5,21.5 -21.3,21.7 -10.9,0.1 -21.8,-10.8 -21.8,-21.8 0,-10.7 10.9,-21.4 21.7,-21.3 10.9,0.1 21.4,10.5 21.4,21.4 z"
     id="path144"
     inkscape:connector-curvature="0"
     style="fill:#c7cfe3" /><path
     class="st0"
     d="m 278.47459,231.18936 c 0,10.8 -10.7,21.4 -21.5,21.3 -10.9,-0.1 -21.5,-10.6 -21.6,-21.4 -0.1,-10.7 10.7,-21.5 21.4,-21.7 11,0 21.7,10.7 21.7,21.8 z"
     id="path146"
     inkscape:connector-curvature="0"
     style="fill:#c7cfe3" /><path
     class="st0"
     d="m 135.57459,209.48936 c -7.3,0 -14.6,0 -22,0 -5.9,0 -9.4,-3.1 -9.4,-8 0,-4.9 3.6,-8 9.4,-8 15.1,0 30.3,-0.1 45.4,0 5.6,0 9.3,3.4 9.2,8.3 -0.1,4.7 -3.6,7.7 -9.1,7.7 -7.9,0 -15.7,0 -23.5,0 z"
     id="path148"
     inkscape:connector-curvature="0"
     style="fill:#c7cfe3" /><path
     class="st1"
     d="m 207.27459,175.78936 c 0.3,4.2 -1.9,5.7 -5.7,5.7 -3.8,-0.1 -5.3,-2 -5.3,-5.6 0,-3.7 1.5,-5.5 5.3,-5.5 3.8,-0.1 6,1.3 5.7,5.4 z"
     id="path150"
     inkscape:connector-curvature="0"
     style="fill:#f9f9f9" /><path
     class="st2"
     d="m 256.97459,236.48936 c -3.9,0.4 -5.6,-1.6 -5.7,-5.2 -0.1,-3.9 1.6,-5.9 5.6,-5.9 3.7,0 5.5,1.5 5.5,5.4 0.1,3.9 -1.3,6.1 -5.4,5.7 z"
     id="path152"
     inkscape:connector-curvature="0"
     style="fill:#f9fafa" /></svg>